<svg width="211.453" height="27.156" viewBox="0 0 211.453 27.156" xmlns="http://www.w3.org/2000/svg"><g id="svgGroup" stroke-linecap="round" fill-rule="evenodd" font-size="9pt" stroke="#000000" stroke-width="0.02mm" fill="#2acfcf" style="stroke:#000000;stroke-width:0.02mm;fill:#2acfcf"><path d="M 13.911 16.919 L 14.048 16.919 Q 14.287 15.996 14.569 15.099 A 36.204 36.204 0 0 1 14.862 14.211 Q 15.043 13.681 15.261 13.091 Q 15.62 12.1 16.133 10.809 A 103.477 103.477 0 0 1 17.218 8.186 A 73.682 73.682 0 0 1 17.924 6.593 A 60.202 60.202 0 0 1 18.337 5.708 A 24.946 24.946 0 0 1 18.701 4.975 Q 18.869 4.652 19.026 4.378 A 10.376 10.376 0 0 1 19.329 3.879 A 5.331 5.331 0 0 1 19.784 3.275 Q 20.133 2.877 20.516 2.632 A 2.176 2.176 0 0 1 21.055 2.39 Q 21.571 2.232 22.305 2.222 A 7.368 7.368 0 0 1 22.405 2.222 L 24.644 2.222 Q 25.376 2.222 25.916 2.401 A 2.627 2.627 0 0 1 26.139 2.487 A 1.205 1.205 0 0 1 26.627 2.89 Q 26.865 3.212 27.002 3.743 A 8.727 8.727 0 0 1 27.106 4.21 Q 27.207 4.72 27.303 5.437 A 36.578 36.578 0 0 1 27.361 5.896 A 29.406 29.406 0 0 1 27.443 6.674 Q 27.562 7.943 27.651 9.827 A 130.267 130.267 0 0 1 27.708 11.172 Q 27.777 13.021 27.824 15.463 A 385.343 385.343 0 0 1 27.839 16.278 Q 27.908 20.217 27.908 26.011 A 0.758 0.758 0 0 1 27.861 26.281 A 0.681 0.681 0 0 1 27.703 26.523 A 0.674 0.674 0 0 1 27.216 26.728 A 0.819 0.819 0 0 1 27.207 26.729 L 23.311 26.729 A 0.674 0.674 0 0 1 22.821 26.53 A 0.815 0.815 0 0 1 22.815 26.523 A 0.692 0.692 0 0 1 22.615 26.095 A 0.944 0.944 0 0 1 22.61 25.994 L 22.61 18.337 A 1014.48 1014.48 0 0 0 22.609 16.832 Q 22.606 14.819 22.594 13.334 A 342.029 342.029 0 0 0 22.593 13.125 Q 22.58 11.542 22.562 10.454 A 143.417 143.417 0 0 0 22.55 9.835 A 67.193 67.193 0 0 0 22.536 9.259 Q 22.512 8.447 22.473 7.947 L 22.371 7.947 A 155.388 155.388 0 0 0 21.435 10.149 A 206.997 206.997 0 0 0 20.439 12.587 Q 19.414 15.142 18.44 17.85 A 101.529 101.529 0 0 0 16.892 22.493 A 91.825 91.825 0 0 0 16.697 23.14 Q 16.475 23.909 16.141 24.208 A 0.779 0.779 0 0 1 15.905 24.346 Q 15.534 24.491 14.792 24.505 A 8.606 8.606 0 0 1 14.629 24.507 L 12.664 24.507 Q 11.655 24.507 11.322 24.25 A 0.932 0.932 0 0 1 11.132 24.046 Q 10.976 23.824 10.845 23.446 A 5.203 5.203 0 0 1 10.75 23.14 A 169.37 169.37 0 0 0 10.156 21.136 A 201.251 201.251 0 0 0 9.502 19.021 A 155.847 155.847 0 0 0 8.092 14.757 Q 7.366 12.664 6.691 10.895 A 79.919 79.919 0 0 0 6.205 9.651 Q 5.817 8.684 5.486 7.947 L 5.383 7.947 Q 5.247 9.963 5.144 12.852 A 314.029 314.029 0 0 0 5.052 15.864 A 397.844 397.844 0 0 0 4.982 19.124 A 538.718 538.718 0 0 0 4.905 26.028 A 0.753 0.753 0 0 1 4.866 26.276 A 0.642 0.642 0 0 1 4.7 26.532 A 0.69 0.69 0 0 1 4.204 26.729 L 0.701 26.729 A 0.674 0.674 0 0 1 0.212 26.53 A 0.815 0.815 0 0 1 0.205 26.523 A 0.692 0.692 0 0 1 0.005 26.095 A 0.944 0.944 0 0 1 0 25.994 Q 0.015 18.219 0.272 13.121 A 120.298 120.298 0 0 1 0.367 11.45 A 162.981 162.981 0 0 1 0.524 9.244 Q 0.758 6.25 1.016 4.745 A 12.197 12.197 0 0 1 1.128 4.17 A 4.104 4.104 0 0 1 1.303 3.585 Q 1.585 2.859 2.094 2.589 A 3.141 3.141 0 0 1 3.19 2.251 A 3.934 3.934 0 0 1 3.674 2.222 L 6.443 2.222 A 4.206 4.206 0 0 1 6.932 2.248 Q 7.436 2.307 7.739 2.5 A 1.108 1.108 0 0 1 7.819 2.555 Q 8.175 2.827 8.662 3.517 A 12.538 12.538 0 0 1 8.887 3.845 A 6.728 6.728 0 0 1 9.123 4.23 Q 9.348 4.624 9.616 5.181 A 26.243 26.243 0 0 1 9.784 5.537 A 54.659 54.659 0 0 1 10.316 6.727 A 71.52 71.52 0 0 1 10.869 8.041 Q 11.433 9.417 11.937 10.758 Q 12.284 11.68 12.546 12.437 A 41.927 41.927 0 0 1 12.766 13.091 Q 13.108 14.099 13.398 15.048 A 31.824 31.824 0 0 1 13.911 16.919 Z M 112.212 16.919 L 112.349 16.919 Q 112.588 15.996 112.87 15.099 A 36.204 36.204 0 0 1 113.162 14.211 Q 113.344 13.681 113.562 13.091 Q 113.921 12.1 114.434 10.809 A 103.477 103.477 0 0 1 115.519 8.186 A 73.682 73.682 0 0 1 116.224 6.593 A 60.202 60.202 0 0 1 116.638 5.708 A 24.946 24.946 0 0 1 117.002 4.975 Q 117.17 4.652 117.327 4.378 A 10.376 10.376 0 0 1 117.629 3.879 A 5.331 5.331 0 0 1 118.085 3.275 Q 118.434 2.877 118.817 2.632 A 2.176 2.176 0 0 1 119.356 2.39 Q 119.872 2.232 120.606 2.222 A 7.368 7.368 0 0 1 120.706 2.222 L 122.944 2.222 Q 123.676 2.222 124.217 2.401 A 2.627 2.627 0 0 1 124.44 2.487 A 1.205 1.205 0 0 1 124.928 2.89 Q 125.166 3.212 125.303 3.743 A 8.727 8.727 0 0 1 125.407 4.21 Q 125.508 4.72 125.604 5.437 A 36.578 36.578 0 0 1 125.662 5.896 A 29.406 29.406 0 0 1 125.744 6.674 Q 125.862 7.943 125.952 9.827 A 130.267 130.267 0 0 1 126.009 11.172 Q 126.078 13.021 126.125 15.463 A 385.343 385.343 0 0 1 126.14 16.278 Q 126.208 20.217 126.208 26.011 A 0.758 0.758 0 0 1 126.162 26.281 A 0.681 0.681 0 0 1 126.003 26.523 A 0.674 0.674 0 0 1 125.517 26.728 A 0.819 0.819 0 0 1 125.508 26.729 L 121.611 26.729 A 0.674 0.674 0 0 1 121.122 26.53 A 0.815 0.815 0 0 1 121.116 26.523 A 0.692 0.692 0 0 1 120.916 26.095 A 0.944 0.944 0 0 1 120.911 25.994 L 120.911 18.337 A 1014.48 1014.48 0 0 0 120.91 16.832 Q 120.907 14.819 120.895 13.334 A 342.029 342.029 0 0 0 120.894 13.125 Q 120.88 11.542 120.862 10.454 A 143.417 143.417 0 0 0 120.851 9.835 A 67.193 67.193 0 0 0 120.836 9.259 Q 120.812 8.447 120.774 7.947 L 120.671 7.947 A 155.388 155.388 0 0 0 119.736 10.149 A 206.997 206.997 0 0 0 118.74 12.587 Q 117.715 15.142 116.741 17.85 A 101.529 101.529 0 0 0 115.193 22.493 A 91.825 91.825 0 0 0 114.998 23.14 Q 114.775 23.909 114.442 24.208 A 0.779 0.779 0 0 1 114.205 24.346 Q 113.835 24.491 113.093 24.505 A 8.606 8.606 0 0 1 112.93 24.507 L 110.964 24.507 Q 109.956 24.507 109.623 24.25 A 0.932 0.932 0 0 1 109.433 24.046 Q 109.277 23.824 109.146 23.446 A 5.203 5.203 0 0 1 109.05 23.14 A 169.37 169.37 0 0 0 108.456 21.136 A 201.251 201.251 0 0 0 107.803 19.021 A 155.847 155.847 0 0 0 106.393 14.757 Q 105.667 12.664 104.991 10.895 A 79.919 79.919 0 0 0 104.506 9.651 Q 104.118 8.684 103.787 7.947 L 103.684 7.947 Q 103.547 9.963 103.445 12.852 A 314.029 314.029 0 0 0 103.353 15.864 A 397.844 397.844 0 0 0 103.282 19.124 A 538.718 538.718 0 0 0 103.206 26.028 A 0.753 0.753 0 0 1 103.166 26.276 A 0.642 0.642 0 0 1 103 26.532 A 0.69 0.69 0 0 1 102.505 26.729 L 99.001 26.729 A 0.674 0.674 0 0 1 98.512 26.53 A 0.815 0.815 0 0 1 98.506 26.523 A 0.692 0.692 0 0 1 98.306 26.095 A 0.944 0.944 0 0 1 98.301 25.994 Q 98.315 18.219 98.573 13.121 A 120.298 120.298 0 0 1 98.668 11.45 A 162.981 162.981 0 0 1 98.824 9.244 Q 99.058 6.25 99.317 4.745 A 12.197 12.197 0 0 1 99.429 4.17 A 4.104 4.104 0 0 1 99.604 3.585 Q 99.886 2.859 100.394 2.589 A 3.141 3.141 0 0 1 101.491 2.251 A 3.934 3.934 0 0 1 101.975 2.222 L 104.744 2.222 A 4.206 4.206 0 0 1 105.232 2.248 Q 105.737 2.307 106.04 2.5 A 1.108 1.108 0 0 1 106.119 2.555 Q 106.476 2.827 106.963 3.517 A 12.538 12.538 0 0 1 107.188 3.845 A 6.728 6.728 0 0 1 107.424 4.23 Q 107.649 4.624 107.917 5.181 A 26.243 26.243 0 0 1 108.085 5.537 A 54.659 54.659 0 0 1 108.617 6.727 A 71.52 71.52 0 0 1 109.17 8.041 Q 109.734 9.417 110.238 10.758 Q 110.585 11.68 110.846 12.437 A 41.927 41.927 0 0 1 111.067 13.091 Q 111.409 14.099 111.699 15.048 A 31.824 31.824 0 0 1 112.212 16.919 Z M 93.43 15.842 L 93.43 25.823 A 1.928 1.928 0 0 1 93.416 26.066 Q 93.375 26.386 93.217 26.532 Q 93.022 26.711 92.578 26.727 A 2.476 2.476 0 0 1 92.49 26.729 L 88.97 26.729 A 2.108 2.108 0 0 1 88.718 26.715 Q 88.457 26.683 88.304 26.58 A 0.52 0.52 0 0 1 88.243 26.532 A 0.545 0.545 0 0 1 88.113 26.34 Q 88.041 26.17 88.031 25.908 A 2.273 2.273 0 0 1 88.03 25.823 L 88.03 16.731 A 7.003 7.003 0 0 0 87.968 15.763 Q 87.81 14.638 87.254 14.025 A 2.13 2.13 0 0 0 87.244 14.014 A 2.595 2.595 0 0 0 85.69 13.203 A 3.724 3.724 0 0 0 85.107 13.159 A 5.052 5.052 0 0 0 84.325 13.216 Q 83.909 13.281 83.574 13.422 A 2.269 2.269 0 0 0 83.031 13.74 Q 82.305 14.321 81.912 15.21 L 81.912 25.823 A 1.928 1.928 0 0 1 81.897 26.066 Q 81.857 26.386 81.698 26.532 Q 81.503 26.711 81.059 26.727 A 2.476 2.476 0 0 1 80.972 26.729 L 77.451 26.729 A 2.108 2.108 0 0 1 77.2 26.715 Q 76.938 26.683 76.786 26.58 A 0.52 0.52 0 0 1 76.725 26.532 A 0.545 0.545 0 0 1 76.595 26.34 Q 76.523 26.17 76.513 25.908 A 2.273 2.273 0 0 1 76.511 25.823 L 76.511 11.501 A 1.587 1.587 0 0 1 76.528 11.263 Q 76.565 11.022 76.682 10.869 A 7.786 7.786 0 0 1 77.132 10.325 A 10.008 10.008 0 0 1 77.545 9.895 A 10.718 10.718 0 0 1 78.03 9.448 Q 78.286 9.227 78.582 8.993 A 18.903 18.903 0 0 1 78.784 8.835 Q 78.95 8.708 79.107 8.675 A 0.517 0.517 0 0 1 79.211 8.665 A 0.506 0.506 0 0 1 79.366 8.691 Q 79.433 8.712 79.506 8.752 A 1.285 1.285 0 0 1 79.639 8.835 A 16.569 16.569 0 0 1 80.267 9.353 Q 80.597 9.64 80.869 9.912 A 8.778 8.778 0 0 1 81.623 10.768 A 7.888 7.888 0 0 1 81.775 10.972 L 81.86 10.972 Q 82.138 10.612 82.681 10.136 A 12.317 12.317 0 0 1 82.732 10.092 Q 83.169 9.712 83.872 9.396 A 8.193 8.193 0 0 1 84.364 9.194 A 5.474 5.474 0 0 1 85.275 8.947 Q 85.739 8.861 86.279 8.825 A 11.962 11.962 0 0 1 87.056 8.801 A 7.412 7.412 0 0 1 90.115 9.451 A 5.077 5.077 0 0 1 92.05 10.987 A 6.534 6.534 0 0 1 92.499 11.638 A 5.691 5.691 0 0 1 93.102 13.074 Q 93.287 13.741 93.367 14.533 A 12.925 12.925 0 0 1 93.43 15.842 Z M 211.453 15.842 L 211.453 25.823 A 1.928 1.928 0 0 1 211.438 26.066 Q 211.398 26.386 211.239 26.532 Q 211.044 26.711 210.6 26.727 A 2.476 2.476 0 0 1 210.513 26.729 L 206.992 26.729 A 2.108 2.108 0 0 1 206.741 26.715 Q 206.479 26.683 206.327 26.58 A 0.52 0.52 0 0 1 206.266 26.532 A 0.545 0.545 0 0 1 206.136 26.34 Q 206.064 26.17 206.054 25.908 A 2.273 2.273 0 0 1 206.052 25.823 L 206.052 16.731 A 7.003 7.003 0 0 0 205.99 15.763 Q 205.833 14.638 205.276 14.025 A 2.13 2.13 0 0 0 205.266 14.014 A 2.595 2.595 0 0 0 203.713 13.203 A 3.724 3.724 0 0 0 203.13 13.159 A 5.052 5.052 0 0 0 202.347 13.216 Q 201.931 13.281 201.596 13.422 A 2.269 2.269 0 0 0 201.053 13.74 Q 200.327 14.321 199.934 15.21 L 199.934 25.823 A 1.928 1.928 0 0 1 199.92 26.066 Q 199.879 26.386 199.72 26.532 Q 199.526 26.711 199.082 26.727 A 2.476 2.476 0 0 1 198.994 26.729 L 195.474 26.729 A 2.108 2.108 0 0 1 195.222 26.715 Q 194.961 26.683 194.808 26.58 A 0.52 0.52 0 0 1 194.747 26.532 A 0.545 0.545 0 0 1 194.617 26.34 Q 194.545 26.17 194.535 25.908 A 2.273 2.273 0 0 1 194.534 25.823 L 194.534 11.501 A 1.587 1.587 0 0 1 194.55 11.263 Q 194.587 11.022 194.705 10.869 A 7.786 7.786 0 0 1 195.154 10.325 A 10.008 10.008 0 0 1 195.568 9.895 A 10.718 10.718 0 0 1 196.053 9.448 Q 196.308 9.227 196.605 8.993 A 18.903 18.903 0 0 1 196.807 8.835 Q 196.973 8.708 197.129 8.675 A 0.517 0.517 0 0 1 197.234 8.665 A 0.506 0.506 0 0 1 197.389 8.691 Q 197.456 8.712 197.529 8.752 A 1.285 1.285 0 0 1 197.661 8.835 A 16.569 16.569 0 0 1 198.289 9.353 Q 198.619 9.64 198.892 9.912 A 8.778 8.778 0 0 1 199.646 10.768 A 7.888 7.888 0 0 1 199.797 10.972 L 199.883 10.972 Q 200.16 10.612 200.703 10.136 A 12.317 12.317 0 0 1 200.754 10.092 Q 201.192 9.712 201.895 9.396 A 8.193 8.193 0 0 1 202.386 9.194 A 5.474 5.474 0 0 1 203.298 8.947 Q 203.761 8.861 204.302 8.825 A 11.962 11.962 0 0 1 205.078 8.801 A 7.412 7.412 0 0 1 208.137 9.451 A 5.077 5.077 0 0 1 210.072 10.987 A 6.534 6.534 0 0 1 210.521 11.638 A 5.691 5.691 0 0 1 211.124 13.074 Q 211.309 13.741 211.39 14.533 A 12.925 12.925 0 0 1 211.453 15.842 Z M 47.886 16.27 L 47.886 25.942 A 0.979 0.979 0 0 1 47.844 26.235 A 0.824 0.824 0 0 1 47.706 26.498 Q 47.56 26.686 47.25 26.721 A 1.346 1.346 0 0 1 47.1 26.729 L 44.536 26.729 A 1.662 1.662 0 0 1 44.281 26.71 A 1.251 1.251 0 0 1 44.049 26.652 Q 43.85 26.58 43.673 26.381 A 1.447 1.447 0 0 1 43.647 26.353 L 42.588 24.985 L 42.468 24.985 A 4.444 4.444 0 0 1 40.358 26.643 A 7.404 7.404 0 0 1 38.741 27.058 A 10.013 10.013 0 0 1 37.307 27.156 A 7.253 7.253 0 0 1 35.635 26.974 A 4.934 4.934 0 0 1 33.317 25.746 Q 31.838 24.336 31.838 21.858 A 6.147 6.147 0 0 1 32.125 19.967 A 5.704 5.704 0 0 1 32.308 19.474 A 4.225 4.225 0 0 1 33.162 18.204 A 5.77 5.77 0 0 1 33.949 17.526 A 6.387 6.387 0 0 1 34.959 16.938 Q 35.495 16.685 36.146 16.472 A 14.728 14.728 0 0 1 37.23 16.167 A 17.611 17.611 0 0 1 38.938 15.848 Q 39.842 15.721 40.895 15.649 A 40.52 40.52 0 0 1 42.622 15.569 A 4.906 4.906 0 0 0 42.561 14.763 Q 42.489 14.337 42.336 14.003 A 1.985 1.985 0 0 0 41.844 13.33 A 2.442 2.442 0 0 0 41.015 12.863 Q 40.652 12.738 40.206 12.685 A 5.917 5.917 0 0 0 39.512 12.646 A 6.738 6.738 0 0 0 38.571 12.708 Q 37.791 12.818 37.222 13.125 A 36.49 36.49 0 0 0 36.912 13.294 Q 36.444 13.551 36.226 13.694 A 1.899 1.899 0 0 0 36.111 13.774 A 0.668 0.668 0 0 1 35.662 13.938 Q 35.61 13.938 35.555 13.932 A 0.981 0.981 0 0 1 35.53 13.928 A 5.379 5.379 0 0 1 34.992 13.819 A 6.865 6.865 0 0 1 34.547 13.689 Q 34.026 13.518 33.428 13.296 A 0.627 0.627 0 0 1 33.355 13.261 Q 33.321 13.242 33.285 13.217 A 1.238 1.238 0 0 1 33.24 13.185 A 0.288 0.288 0 0 1 33.138 13.039 A 0.427 0.427 0 0 1 33.12 12.954 A 1.106 1.106 0 0 1 33.122 12.887 Q 33.126 12.823 33.137 12.74 Q 33.154 12.612 33.223 12.271 A 8.906 8.906 0 0 1 33.281 12.004 Q 33.34 11.748 33.428 11.425 Q 33.54 11.009 33.641 10.75 A 2.795 2.795 0 0 1 33.684 10.647 A 1.295 1.295 0 0 1 33.873 10.382 Q 34.006 10.236 34.197 10.1 A 1.21 1.21 0 0 1 34.372 9.986 Q 34.693 9.807 35.431 9.526 A 30.475 30.475 0 0 1 35.957 9.331 Q 37.285 8.852 39.686 8.806 A 27.333 27.333 0 0 1 40.212 8.801 Q 46.27 8.801 47.546 13.455 A 10.661 10.661 0 0 1 47.886 16.27 Z M 146.187 16.27 L 146.187 25.942 A 0.979 0.979 0 0 1 146.144 26.235 A 0.824 0.824 0 0 1 146.007 26.498 Q 145.861 26.686 145.55 26.721 A 1.346 1.346 0 0 1 145.4 26.729 L 142.837 26.729 A 1.662 1.662 0 0 1 142.582 26.71 A 1.251 1.251 0 0 1 142.35 26.652 Q 142.15 26.58 141.973 26.381 A 1.447 1.447 0 0 1 141.948 26.353 L 140.889 24.985 L 140.769 24.985 A 4.444 4.444 0 0 1 138.658 26.643 A 7.404 7.404 0 0 1 137.041 27.058 A 10.013 10.013 0 0 1 135.608 27.156 A 7.253 7.253 0 0 1 133.936 26.974 A 4.934 4.934 0 0 1 131.617 25.746 Q 130.139 24.336 130.139 21.858 A 6.147 6.147 0 0 1 130.425 19.967 A 5.704 5.704 0 0 1 130.609 19.474 A 4.225 4.225 0 0 1 131.463 18.204 A 5.77 5.77 0 0 1 132.25 17.526 A 6.387 6.387 0 0 1 133.26 16.938 Q 133.795 16.685 134.447 16.472 A 14.728 14.728 0 0 1 135.531 16.167 A 17.611 17.611 0 0 1 137.239 15.848 Q 138.143 15.721 139.196 15.649 A 40.52 40.52 0 0 1 140.923 15.569 A 4.906 4.906 0 0 0 140.861 14.763 Q 140.79 14.337 140.637 14.003 A 1.985 1.985 0 0 0 140.145 13.33 A 2.442 2.442 0 0 0 139.316 12.863 Q 138.953 12.738 138.507 12.685 A 5.917 5.917 0 0 0 137.813 12.646 A 6.738 6.738 0 0 0 136.871 12.708 Q 136.092 12.818 135.522 13.125 A 36.49 36.49 0 0 0 135.213 13.294 Q 134.745 13.551 134.527 13.694 A 1.899 1.899 0 0 0 134.412 13.774 A 0.668 0.668 0 0 1 133.963 13.938 Q 133.911 13.938 133.856 13.932 A 0.981 0.981 0 0 1 133.831 13.928 A 5.379 5.379 0 0 1 133.293 13.819 A 6.865 6.865 0 0 1 132.848 13.689 Q 132.327 13.518 131.729 13.296 A 0.627 0.627 0 0 1 131.656 13.261 Q 131.622 13.242 131.585 13.217 A 1.238 1.238 0 0 1 131.541 13.185 A 0.288 0.288 0 0 1 131.439 13.039 A 0.427 0.427 0 0 1 131.421 12.954 A 1.106 1.106 0 0 1 131.423 12.887 Q 131.427 12.823 131.438 12.74 Q 131.455 12.612 131.523 12.271 A 8.906 8.906 0 0 1 131.581 12.004 Q 131.641 11.748 131.729 11.425 Q 131.841 11.009 131.942 10.75 A 2.795 2.795 0 0 1 131.985 10.647 A 1.295 1.295 0 0 1 132.174 10.382 Q 132.307 10.236 132.498 10.1 A 1.21 1.21 0 0 1 132.673 9.986 Q 132.993 9.807 133.731 9.526 A 30.475 30.475 0 0 1 134.258 9.331 Q 135.585 8.852 137.987 8.806 A 27.333 27.333 0 0 1 138.513 8.801 Q 144.571 8.801 145.846 13.455 A 10.661 10.661 0 0 1 146.187 16.27 Z M 189.919 16.27 L 189.919 25.942 A 0.979 0.979 0 0 1 189.877 26.235 A 0.824 0.824 0 0 1 189.74 26.498 Q 189.594 26.686 189.283 26.721 A 1.346 1.346 0 0 1 189.133 26.729 L 186.57 26.729 A 1.662 1.662 0 0 1 186.315 26.71 A 1.251 1.251 0 0 1 186.083 26.652 Q 185.883 26.58 185.706 26.381 A 1.447 1.447 0 0 1 185.681 26.353 L 184.622 24.985 L 184.502 24.985 A 4.444 4.444 0 0 1 182.391 26.643 A 7.404 7.404 0 0 1 180.774 27.058 A 10.013 10.013 0 0 1 179.341 27.156 A 7.253 7.253 0 0 1 177.669 26.974 A 4.934 4.934 0 0 1 175.35 25.746 Q 173.872 24.336 173.872 21.858 A 6.147 6.147 0 0 1 174.158 19.967 A 5.704 5.704 0 0 1 174.342 19.474 A 4.225 4.225 0 0 1 175.196 18.204 A 5.77 5.77 0 0 1 175.983 17.526 A 6.387 6.387 0 0 1 176.993 16.938 Q 177.528 16.685 178.18 16.472 A 14.728 14.728 0 0 1 179.264 16.167 A 17.611 17.611 0 0 1 180.972 15.848 Q 181.876 15.721 182.929 15.649 A 40.52 40.52 0 0 1 184.656 15.569 A 4.906 4.906 0 0 0 184.594 14.763 Q 184.523 14.337 184.37 14.003 A 1.985 1.985 0 0 0 183.878 13.33 A 2.442 2.442 0 0 0 183.049 12.863 Q 182.685 12.738 182.24 12.685 A 5.917 5.917 0 0 0 181.545 12.646 A 6.738 6.738 0 0 0 180.604 12.708 Q 179.825 12.818 179.255 13.125 A 36.49 36.49 0 0 0 178.946 13.294 Q 178.478 13.551 178.26 13.694 A 1.899 1.899 0 0 0 178.145 13.774 A 0.668 0.668 0 0 1 177.696 13.938 Q 177.644 13.938 177.589 13.932 A 0.981 0.981 0 0 1 177.563 13.928 A 5.379 5.379 0 0 1 177.025 13.819 A 6.865 6.865 0 0 1 176.581 13.689 Q 176.06 13.518 175.461 13.296 A 0.627 0.627 0 0 1 175.389 13.261 Q 175.355 13.242 175.318 13.217 A 1.238 1.238 0 0 1 175.273 13.185 A 0.288 0.288 0 0 1 175.171 13.039 A 0.427 0.427 0 0 1 175.154 12.954 A 1.106 1.106 0 0 1 175.156 12.887 Q 175.16 12.823 175.171 12.74 Q 175.188 12.612 175.256 12.271 A 8.906 8.906 0 0 1 175.314 12.004 Q 175.374 11.748 175.461 11.425 Q 175.574 11.009 175.675 10.75 A 2.795 2.795 0 0 1 175.718 10.647 A 1.295 1.295 0 0 1 175.907 10.382 Q 176.04 10.236 176.23 10.1 A 1.21 1.21 0 0 1 176.406 9.986 Q 176.726 9.807 177.464 9.526 A 30.475 30.475 0 0 1 177.991 9.331 Q 179.318 8.852 181.72 8.806 A 27.333 27.333 0 0 1 182.246 8.801 Q 188.304 8.801 189.579 13.455 A 10.661 10.661 0 0 1 189.919 16.27 Z M 57.9 11.211 L 57.9 12.476 L 57.969 12.476 Q 59.221 9.002 62.433 8.923 A 6.12 6.12 0 0 1 62.583 8.921 Q 63.01 8.921 63.284 8.964 A 6.76 6.76 0 0 1 63.406 8.984 Q 63.574 9.013 63.652 9.038 A 0.552 0.552 0 0 1 63.66 9.041 A 0.379 0.379 0 0 1 63.808 9.128 Q 63.878 9.197 63.903 9.305 A 0.581 0.581 0 0 1 63.916 9.434 L 63.916 13.552 A 0.655 0.655 0 0 1 63.902 13.694 Q 63.826 14.034 63.336 13.856 A 1.667 1.667 0 0 1 63.301 13.843 Q 63.116 13.766 62.784 13.682 A 8.553 8.553 0 0 0 62.711 13.663 A 2.62 2.62 0 0 0 62.442 13.614 Q 62.113 13.569 61.643 13.569 A 3.841 3.841 0 0 0 60.397 13.762 A 3.153 3.153 0 0 0 58.892 14.86 A 4.452 4.452 0 0 0 58.152 16.369 Q 57.979 16.976 57.925 17.695 A 9.024 9.024 0 0 0 57.9 18.372 L 57.9 25.823 A 1.928 1.928 0 0 1 57.886 26.066 Q 57.845 26.386 57.687 26.532 Q 57.492 26.711 57.048 26.727 A 2.476 2.476 0 0 1 56.96 26.729 L 53.44 26.729 A 2.108 2.108 0 0 1 53.189 26.715 Q 52.927 26.683 52.775 26.58 A 0.52 0.52 0 0 1 52.714 26.532 A 0.545 0.545 0 0 1 52.583 26.34 Q 52.511 26.17 52.502 25.908 A 2.273 2.273 0 0 1 52.5 25.823 L 52.5 11.501 A 1.587 1.587 0 0 1 52.517 11.263 Q 52.553 11.022 52.671 10.869 A 7.786 7.786 0 0 1 53.121 10.325 A 10.008 10.008 0 0 1 53.534 9.895 A 10.718 10.718 0 0 1 54.019 9.448 Q 54.274 9.227 54.571 8.993 A 18.903 18.903 0 0 1 54.773 8.835 A 0.907 0.907 0 0 1 54.901 8.754 A 0.673 0.673 0 0 1 55.046 8.699 A 1.349 1.349 0 0 1 55.144 8.678 Q 55.195 8.669 55.24 8.666 A 0.685 0.685 0 0 1 55.286 8.665 A 0.725 0.725 0 0 1 55.577 8.728 A 1.03 1.03 0 0 1 55.764 8.835 A 19.362 19.362 0 0 1 56.494 9.435 Q 57.184 10.031 57.581 10.517 A 4.328 4.328 0 0 1 57.747 10.732 Q 57.9 10.938 57.9 11.211 Z M 156.201 11.211 L 156.201 12.476 L 156.27 12.476 Q 157.522 9.002 160.733 8.923 A 6.12 6.12 0 0 1 160.884 8.921 Q 161.311 8.921 161.584 8.964 A 6.76 6.76 0 0 1 161.707 8.984 Q 161.875 9.013 161.953 9.038 A 0.552 0.552 0 0 1 161.96 9.041 A 0.379 0.379 0 0 1 162.109 9.128 Q 162.179 9.197 162.203 9.305 A 0.581 0.581 0 0 1 162.217 9.434 L 162.217 13.552 A 0.655 0.655 0 0 1 162.203 13.694 Q 162.127 14.034 161.637 13.856 A 1.667 1.667 0 0 1 161.602 13.843 Q 161.416 13.766 161.085 13.682 A 8.553 8.553 0 0 0 161.012 13.663 A 2.62 2.62 0 0 0 160.742 13.614 Q 160.414 13.569 159.944 13.569 A 3.841 3.841 0 0 0 158.697 13.762 A 3.153 3.153 0 0 0 157.192 14.86 A 4.452 4.452 0 0 0 156.453 16.369 Q 156.28 16.976 156.226 17.695 A 9.024 9.024 0 0 0 156.201 18.372 L 156.201 25.823 A 1.928 1.928 0 0 1 156.187 26.066 Q 156.146 26.386 155.988 26.532 Q 155.793 26.711 155.349 26.727 A 2.476 2.476 0 0 1 155.261 26.729 L 151.741 26.729 A 2.108 2.108 0 0 1 151.489 26.715 Q 151.228 26.683 151.075 26.58 A 0.52 0.52 0 0 1 151.014 26.532 A 0.545 0.545 0 0 1 150.884 26.34 Q 150.812 26.17 150.802 25.908 A 2.273 2.273 0 0 1 150.801 25.823 L 150.801 11.501 A 1.587 1.587 0 0 1 150.817 11.263 Q 150.854 11.022 150.972 10.869 A 7.786 7.786 0 0 1 151.421 10.325 A 10.008 10.008 0 0 1 151.835 9.895 A 10.718 10.718 0 0 1 152.32 9.448 Q 152.575 9.227 152.872 8.993 A 18.903 18.903 0 0 1 153.074 8.835 A 0.907 0.907 0 0 1 153.202 8.754 A 0.673 0.673 0 0 1 153.347 8.699 A 1.349 1.349 0 0 1 153.445 8.678 Q 153.496 8.669 153.541 8.666 A 0.685 0.685 0 0 1 153.586 8.665 A 0.725 0.725 0 0 1 153.878 8.728 A 1.03 1.03 0 0 1 154.065 8.835 A 19.362 19.362 0 0 1 154.795 9.435 Q 155.485 10.031 155.882 10.517 A 4.328 4.328 0 0 1 156.047 10.732 Q 156.201 10.938 156.201 11.211 Z M 71.863 10.134 L 71.863 25.823 A 1.928 1.928 0 0 1 71.849 26.066 Q 71.808 26.386 71.649 26.532 Q 71.454 26.711 71.01 26.727 A 2.476 2.476 0 0 1 70.923 26.729 L 67.402 26.729 A 2.108 2.108 0 0 1 67.151 26.715 Q 66.89 26.683 66.737 26.58 A 0.52 0.52 0 0 1 66.676 26.532 A 0.545 0.545 0 0 1 66.546 26.34 Q 66.474 26.17 66.464 25.908 A 2.273 2.273 0 0 1 66.462 25.823 L 66.462 10.134 A 1.928 1.928 0 0 1 66.477 9.891 Q 66.517 9.571 66.676 9.425 Q 66.871 9.246 67.315 9.23 A 2.476 2.476 0 0 1 67.402 9.229 L 70.923 9.229 A 2.108 2.108 0 0 1 71.174 9.242 Q 71.436 9.274 71.588 9.377 A 0.52 0.52 0 0 1 71.649 9.425 A 0.545 0.545 0 0 1 71.779 9.617 Q 71.851 9.787 71.861 10.049 A 2.273 2.273 0 0 1 71.863 10.134 Z M 170.164 10.134 L 170.164 25.823 A 1.928 1.928 0 0 1 170.149 26.066 Q 170.109 26.386 169.95 26.532 Q 169.755 26.711 169.311 26.727 A 2.476 2.476 0 0 1 169.224 26.729 L 165.703 26.729 A 2.108 2.108 0 0 1 165.452 26.715 Q 165.19 26.683 165.038 26.58 A 0.52 0.52 0 0 1 164.977 26.532 A 0.545 0.545 0 0 1 164.847 26.34 Q 164.775 26.17 164.765 25.908 A 2.273 2.273 0 0 1 164.763 25.823 L 164.763 10.134 A 1.928 1.928 0 0 1 164.777 9.891 Q 164.818 9.571 164.977 9.425 Q 165.172 9.246 165.616 9.23 A 2.476 2.476 0 0 1 165.703 9.229 L 169.224 9.229 A 2.108 2.108 0 0 1 169.475 9.242 Q 169.736 9.274 169.889 9.377 A 0.52 0.52 0 0 1 169.95 9.425 A 0.545 0.545 0 0 1 170.08 9.617 Q 170.152 9.787 170.162 10.049 A 2.273 2.273 0 0 1 170.164 10.134 Z M 65.813 3.093 A 0.611 0.611 0 0 0 65.676 3.486 A 0.578 0.578 0 0 0 65.813 3.871 A 18.16 18.16 0 0 1 65.882 3.953 Q 66.002 4.097 66.172 4.307 Q 66.65 4.871 67.249 5.477 Q 67.847 6.084 68.53 6.631 A 7.641 7.641 0 0 0 68.539 6.638 Q 68.806 6.837 68.932 6.896 A 0.697 0.697 0 0 0 69.027 6.932 A 0.532 0.532 0 0 0 69.18 6.956 A 0.482 0.482 0 0 0 69.188 6.955 Q 69.304 6.953 69.436 6.896 Q 69.539 6.851 69.699 6.724 A 3.683 3.683 0 0 0 69.812 6.631 Q 70.461 6.084 71.077 5.477 A 24.248 24.248 0 0 0 71.653 4.89 A 17.786 17.786 0 0 0 72.153 4.341 A 70.128 70.128 0 0 1 72.26 4.211 Q 72.372 4.076 72.459 3.972 A 21.871 21.871 0 0 1 72.538 3.879 A 0.589 0.589 0 0 0 72.683 3.486 Q 72.683 3.264 72.538 3.085 A 12.053 12.053 0 0 0 72.418 2.939 Q 72.353 2.861 72.277 2.772 A 26.27 26.27 0 0 0 72.17 2.649 A 19.601 19.601 0 0 0 71.094 1.504 A 26.67 26.67 0 0 0 69.812 0.325 A 4.302 4.302 0 0 0 69.752 0.28 Q 69.37 0 69.18 0 Q 69.019 0 68.734 0.198 A 3.394 3.394 0 0 0 68.564 0.325 A 34.984 34.984 0 0 0 67.283 1.495 A 21.228 21.228 0 0 0 66.689 2.087 A 16.032 16.032 0 0 0 66.172 2.649 Q 65.95 2.922 65.813 3.093 Z M 164.114 3.093 A 0.611 0.611 0 0 0 163.977 3.486 A 0.578 0.578 0 0 0 164.114 3.871 A 18.16 18.16 0 0 1 164.183 3.953 Q 164.303 4.097 164.473 4.307 Q 164.951 4.871 165.549 5.477 Q 166.147 6.084 166.831 6.631 A 7.641 7.641 0 0 0 166.84 6.638 Q 167.107 6.837 167.233 6.896 A 0.697 0.697 0 0 0 167.328 6.932 A 0.532 0.532 0 0 0 167.48 6.956 A 0.482 0.482 0 0 0 167.489 6.955 Q 167.605 6.953 167.737 6.896 Q 167.839 6.851 168 6.724 A 3.683 3.683 0 0 0 168.113 6.631 Q 168.762 6.084 169.377 5.477 A 24.248 24.248 0 0 0 169.954 4.89 A 17.786 17.786 0 0 0 170.454 4.341 A 70.128 70.128 0 0 1 170.561 4.211 Q 170.673 4.076 170.76 3.972 A 21.871 21.871 0 0 1 170.839 3.879 A 0.589 0.589 0 0 0 170.984 3.486 Q 170.984 3.264 170.839 3.085 A 12.053 12.053 0 0 0 170.719 2.939 Q 170.653 2.861 170.577 2.772 A 26.27 26.27 0 0 0 170.471 2.649 A 19.601 19.601 0 0 0 169.395 1.504 A 26.67 26.67 0 0 0 168.113 0.325 A 4.302 4.302 0 0 0 168.053 0.28 Q 167.671 0 167.48 0 Q 167.32 0 167.035 0.198 A 3.394 3.394 0 0 0 166.865 0.325 A 34.984 34.984 0 0 0 165.583 1.495 A 21.228 21.228 0 0 0 164.99 2.087 A 16.032 16.032 0 0 0 164.473 2.649 Q 164.25 2.922 164.114 3.093 Z M 42.588 20.73 L 42.588 18.833 A 24.671 24.671 0 0 0 41.346 18.862 Q 40.222 18.919 39.459 19.087 A 5.399 5.399 0 0 0 39.025 19.2 A 5.469 5.469 0 0 0 38.435 19.418 Q 37.729 19.729 37.444 20.157 A 2.251 2.251 0 0 0 37.051 21.431 A 2.482 2.482 0 0 0 37.098 21.934 Q 37.158 22.222 37.293 22.436 A 1.168 1.168 0 0 0 37.666 22.806 A 2.437 2.437 0 0 0 38.45 23.117 Q 38.769 23.186 39.138 23.191 A 4.21 4.21 0 0 0 39.187 23.191 A 4.907 4.907 0 0 0 40.095 23.112 Q 41.01 22.94 41.563 22.388 Q 42.266 21.684 42.524 20.941 A 2.773 2.773 0 0 0 42.588 20.73 Z M 140.889 20.73 L 140.889 18.833 A 24.671 24.671 0 0 0 139.646 18.862 Q 138.523 18.919 137.759 19.087 A 5.399 5.399 0 0 0 137.325 19.2 A 5.469 5.469 0 0 0 136.735 19.418 Q 136.03 19.729 135.745 20.157 A 2.251 2.251 0 0 0 135.352 21.431 A 2.482 2.482 0 0 0 135.399 21.934 Q 135.459 22.222 135.594 22.436 A 1.168 1.168 0 0 0 135.967 22.806 A 2.437 2.437 0 0 0 136.751 23.117 Q 137.07 23.186 137.438 23.191 A 4.21 4.21 0 0 0 137.488 23.191 A 4.907 4.907 0 0 0 138.395 23.112 Q 139.311 22.94 139.863 22.388 Q 140.567 21.684 140.825 20.941 A 2.773 2.773 0 0 0 140.889 20.73 Z M 184.622 20.73 L 184.622 18.833 A 24.671 24.671 0 0 0 183.379 18.862 Q 182.256 18.919 181.492 19.087 A 5.399 5.399 0 0 0 181.058 19.2 A 5.469 5.469 0 0 0 180.468 19.418 Q 179.763 19.729 179.478 20.157 A 2.251 2.251 0 0 0 179.084 21.431 A 2.482 2.482 0 0 0 179.132 21.934 Q 179.192 22.222 179.327 22.436 A 1.168 1.168 0 0 0 179.7 22.806 A 2.437 2.437 0 0 0 180.484 23.117 Q 180.803 23.186 181.171 23.191 A 4.21 4.21 0 0 0 181.221 23.191 A 4.907 4.907 0 0 0 182.128 23.112 Q 183.044 22.94 183.596 22.388 Q 184.3 21.684 184.558 20.941 A 2.773 2.773 0 0 0 184.622 20.73 Z" vector-effect="non-scaling-stroke"/></g></svg>